<?xml version="1.0" encoding="UTF-8" standalone="no"?><!-- Generator: Gravit.io --><svg xmlns="http://www.w3.org/2000/svg" xmlns:xlink="http://www.w3.org/1999/xlink" style="isolation:isolate" viewBox="617 538 1960 807.805" width="1960pt" height="807.805pt"><defs><clipPath id="_clipPath_RYO3iFago7d8YRfZc6VxT9TSqKPVYzfO"><rect x="617" y="538" width="1960" height="807.805"/></clipPath></defs><g clip-path="url(#_clipPath_RYO3iFago7d8YRfZc6VxT9TSqKPVYzfO)"><rect x="617" y="538" width="1960" height="807.805" style="fill:rgb(18,18,18)" fill-opacity="0"/><g><path d="M 1012.136 823.506 L 2181.864 823.506 C 2281.316 823.506 2362.057 904.248 2362.057 1003.699 L 2362.057 1165.611 C 2362.057 1265.063 2281.316 1345.805 2181.864 1345.805 L 1012.136 1345.805 C 912.684 1345.805 831.943 1265.063 831.943 1165.611 L 831.943 1003.699 C 831.943 904.248 912.684 823.506 1012.136 823.506 Z" style="stroke:none;fill:#EEEEEE;stroke-miterlimit:10;"/><defs><filter id="4LI28K3BYImfp2y86QkO4CZ1mxDCpDxo" x="-200%" y="-200%" width="400%" height="400%" filterUnits="objectBoundingBox" color-interpolation-filters="sRGB"><feGaussianBlur xmlns="http://www.w3.org/2000/svg" in="SourceGraphic" stdDeviation="6.440413594258542"/><feOffset xmlns="http://www.w3.org/2000/svg" dx="0" dy="3" result="pf_100_offsetBlur"/><feFlood xmlns="http://www.w3.org/2000/svg" flood-color="#000000" flood-opacity="0.3"/><feComposite xmlns="http://www.w3.org/2000/svg" in2="pf_100_offsetBlur" operator="in" result="pf_100_dropShadow"/><feBlend xmlns="http://www.w3.org/2000/svg" in="SourceGraphic" in2="pf_100_dropShadow" mode="normal"/></filter><linearGradient id="_lgradient_2" x1="0.06960408684546546" y1="0.22133333333333377" x2="0.9500174155346562" y2="0.8482424242424245"><stop offset="0%" style="stop-color:#F6FF29"/><stop offset="100%" style="stop-color:#FFE249"/></linearGradient></defs><g filter="url(#4LI28K3BYImfp2y86QkO4CZ1mxDCpDxo)"><path d="M 895.823 555 L 2298.177 555 C 2441.025 555 2557 670.975 2557 813.823 L 2557 825.389 C 2557 929.911 2472.141 1014.77 2367.618 1014.77 L 826.382 1014.77 C 721.859 1014.77 637 929.911 637 825.389 L 637 813.823 C 637 670.975 752.975 555 895.823 555 Z" style="stroke:none;fill:url(#_lgradient_2);stroke-miterlimit:10;"/></g><defs><filter id="oIF9ozRHQRPWV0kEoXEtQnWCjFT8sD43" x="-200%" y="-200%" width="400%" height="400%" filterUnits="objectBoundingBox" color-interpolation-filters="sRGB"><feGaussianBlur xmlns="http://www.w3.org/2000/svg" in="SourceGraphic" stdDeviation="4.293609062839028"/><feOffset xmlns="http://www.w3.org/2000/svg" dx="0" dy="3" result="pf_100_offsetBlur"/><feFlood xmlns="http://www.w3.org/2000/svg" flood-color="#000000" flood-opacity="0.4"/><feComposite xmlns="http://www.w3.org/2000/svg" in2="pf_100_offsetBlur" operator="in" result="pf_100_dropShadow"/><feBlend xmlns="http://www.w3.org/2000/svg" in="SourceGraphic" in2="pf_100_dropShadow" mode="normal"/></filter><linearGradient id="_lgradient_3" x1="0.14181818181818073" y1="0.024000000000000903" x2="0.6455439642324858" y2="0.9512727272727286"><stop offset="0%" style="stop-color:#4D4D4D"/><stop offset="100%" style="stop-color:#000000"/></linearGradient></defs><g filter="url(#oIF9ozRHQRPWV0kEoXEtQnWCjFT8sD43)"><path d="M 1428.724 555 L 1752.332 555 L 1752.332 1014.77 L 1438.724 1014.77 C 1433.205 1014.77 1428.724 1010.289 1428.724 1004.77 L 1428.724 555 Z" style="stroke:none;fill:url(#_lgradient_3);stroke-miterlimit:10;"/></g><rect x="1436" y="1014.77" width="321" height="331.034" transform="matrix(1,0,0,1,0,0)" fill="rgb(0,0,0)"/></g></g></svg>